<?xml version="1.0" encoding="UTF-8"?>
<svg width="20px" height="20px" viewBox="0 0 20 20" version="1.1" xmlns="http://www.w3.org/2000/svg" xmlns:xlink="http://www.w3.org/1999/xlink">
    <!-- Generator: Sketch 54.1 (76490) - https://sketchapp.com -->
    <title>plus-circle-outline</title>
    <desc>Created with Sketch.</desc>
    <g id="Page-1" stroke="none" stroke-width="1" fill="none" fill-rule="evenodd">
        <g id="Desktop-HD" transform="translate(-947.000000, -109.000000)" fill-rule="nonzero">
            <g id="plus-circle-outline" transform="translate(945.000000, 107.000000)">
                <rect id="Rectangle" fill="#000000" opacity="0" x="0" y="0" width="24" height="24"></rect>
                <path d="M12,2 C6.4771525,2 2,6.4771525 2,12 C2,17.5228475 6.4771525,22 12,22 C17.5228475,22 22,17.5228475 22,12 C22,9.3478351 20.9464316,6.80429597 19.0710678,4.92893219 C17.195704,3.0535684 14.6521649,2 12,2 Z M12,20 C7.581722,20 4,16.418278 4,12 C4,7.581722 7.581722,4 12,4 C16.418278,4 20,7.581722 20,12 C20,14.1217319 19.1571453,16.1565632 17.6568542,17.6568542 C16.1565632,19.1571453 14.1217319,20 12,20 Z" id="Shape" fill="#3B3E46"></path>
                <path d="M15,11 L13,11 L13,9 C13,8.44771525 12.5522847,8 12,8 C11.4477153,8 11,8.44771525 11,9 L11,11 L9,11 C8.44771525,11 8,11.4477153 8,12 C8,12.5522847 8.44771525,13 9,13 L11,13 L11,15 C11,15.5522847 11.4477153,16 12,16 C12.5522847,16 13,15.5522847 13,15 L13,13 L15,13 C15.5522847,13 16,12.5522847 16,12 C16,11.4477153 15.5522847,11 15,11 Z" id="Path" fill="#3B3E46"></path>
            </g>
        </g>
    </g>
</svg>