<?xml version="1.0" encoding="UTF-8"?>
<svg width="113px" height="39px" viewBox="0 0 113 39" version="1.1" xmlns="http://www.w3.org/2000/svg" xmlns:xlink="http://www.w3.org/1999/xlink">
    <!-- Generator: Sketch 54.1 (76490) - https://sketchapp.com -->
    <title>Group 7</title>
    <desc>Created with Sketch.</desc>
    <g id="Page-1" stroke="none" stroke-width="1" fill="none" fill-rule="evenodd">
        <g id="Desktop-HD" transform="translate(-156.000000, -18.000000)">
            <g id="Group-7" transform="translate(156.000000, 18.000000)">
                <path d="M46.43,27 L46.43,11.38 L49.51,11.38 L54.438,20.4 L59.388,11.38 L62.358,11.38 L62.358,27 L59.19,27 L59.19,17.122 L55.56,23.744 L53.228,23.744 L49.598,17.122 L49.598,27 L46.43,27 Z M68.606,27.33 C68.0046637,27.33 67.4546692,27.2420009 66.956,27.066 C66.4573308,26.8899991 66.0210019,26.6370017 65.647,26.307 C65.2729981,25.9769984 64.9833344,25.5920022 64.778,25.152 C64.5726656,24.7119978 64.47,24.2280026 64.47,23.7 C64.47,22.966663 64.667998,22.3213361 65.064,21.764 C65.460002,21.2066639 66.0173297,20.7703349 66.736,20.455 C67.4546703,20.1396651 68.2906619,19.982 69.244,19.982 C69.7280024,19.982 70.1863312,20.0259996 70.619,20.114 C71.0516688,20.2020004 71.4733313,20.3266659 71.884,20.488 L71.884,19.806 C71.884,19.1459967 71.6970019,18.6106687 71.323,18.2 C70.9489981,17.7893313 70.4393366,17.584 69.794,17.584 C69.3099976,17.584 68.870002,17.7049988 68.474,17.947 C68.077998,18.1890012 67.7993341,18.5299978 67.638,18.97 L64.888,18.42 C65.0493341,17.74533 65.368331,17.1550025 65.845,16.649 C66.321669,16.1429975 66.9046632,15.7506681 67.594,15.472 C68.2833368,15.1933319 69.0313293,15.054 69.838,15.054 C70.5860037,15.054 71.2679969,15.1713322 71.884,15.406 C72.5000031,15.6406678 73.0316644,15.9779978 73.479,16.418 C73.9263356,16.8580022 74.2709988,17.374997 74.513,17.969 C74.7550012,18.563003 74.876,19.226663 74.876,19.96 L74.876,27 L72.126,27 L72.038,25.636 C71.7299985,26.1346692 71.2826696,26.5416651 70.696,26.857 C70.1093304,27.1723349 69.4126707,27.33 68.606,27.33 Z M67.506,23.546 C67.506,23.9566687 67.674665,24.2939987 68.012,24.558 C68.349335,24.8220013 68.7966639,24.954 69.354,24.954 C69.8380024,24.954 70.2706648,24.8513344 70.652,24.646 C71.0333352,24.4406656 71.3339989,24.1583351 71.554,23.799 C71.7740011,23.4396649 71.884,23.0400022 71.884,22.6 L71.884,22.49 C71.5613317,22.3579993 71.2166685,22.2516671 70.85,22.171 C70.4833315,22.0903329 70.1166685,22.05 69.75,22.05 C69.0606632,22.05 68.5143353,22.1856653 68.111,22.457 C67.7076646,22.7283347 67.506,23.0913311 67.506,23.546 Z M77.34,27 L77.34,15.384 L80.178,15.384 L80.288,17.144 C80.5813348,16.5279969 80.9773308,16.0550016 81.476,15.725 C81.9746692,15.3949984 82.56133,15.23 83.236,15.23 C83.4413344,15.23 83.6466656,15.2483332 83.852,15.285 C84.0573344,15.3216668 84.2406659,15.369333 84.402,15.428 L84.072,18.464 C83.9106659,18.405333 83.7456675,18.3650001 83.577,18.343 C83.4083325,18.3209999 83.2360009,18.31 83.06,18.31 C82.2093291,18.31 81.5566689,18.5703307 81.102,19.091 C80.6473311,19.6116693 80.42,20.3486619 80.42,21.302 L80.42,27 L77.34,27 Z M91.42,27.33 C90.6133293,27.33 89.9203362,27.1723349 89.341,26.857 C88.7616638,26.5416651 88.3143349,26.0833363 87.999,25.482 C87.6836651,24.8806637 87.526,24.1473377 87.526,23.282 L87.526,17.87 L85.546,17.87 L85.546,15.384 L87.526,15.384 L87.526,11.424 L90.606,11.424 L90.606,15.384 L93.774,15.384 L93.774,17.87 L90.606,17.87 L90.606,22.908 C90.606,23.4653361 90.7233322,23.8943318 90.958,24.195 C91.1926678,24.4956682 91.5519976,24.646 92.036,24.646 C92.2853346,24.646 92.5529986,24.6093337 92.839,24.536 C93.1250014,24.4626663 93.3999987,24.3673339 93.664,24.25 L94.214,26.56 C93.8326648,26.7946678 93.4073357,26.981666 92.938,27.121 C92.4686643,27.260334 91.9626694,27.33 91.42,27.33 Z M99.318,12.238 C99.318,12.575335 99.2410008,12.8759987 99.087,13.14 C98.9329992,13.4040013 98.7203347,13.6129992 98.449,13.767 C98.1776653,13.9210008 97.8806683,13.998 97.558,13.998 C97.2353317,13.998 96.9383347,13.9210008 96.667,13.767 C96.3956653,13.6129992 96.1830008,13.4040013 96.029,13.14 C95.8749992,12.8759987 95.798,12.575335 95.798,12.238 C95.798,11.900665 95.8749992,11.6000013 96.029,11.336 C96.1830008,11.0719987 96.3956653,10.8630008 96.667,10.709 C96.9383347,10.5549992 97.2353317,10.478 97.558,10.478 C97.8806683,10.478 98.1776653,10.5549992 98.449,10.709 C98.7203347,10.8630008 98.9329992,11.0719987 99.087,11.336 C99.2410008,11.6000013 99.318,11.900665 99.318,12.238 Z M96.018,27 L96.018,15.384 L99.098,15.384 L99.098,27 L96.018,27 Z M101.562,27 L101.562,15.384 L104.4,15.384 L104.488,16.88 C104.825335,16.3226639 105.290997,15.8790016 105.885,15.549 C106.479003,15.2189983 107.15733,15.054 107.92,15.054 C108.770671,15.054 109.514997,15.2556646 110.153,15.659 C110.791003,16.0623354 111.285998,16.6379963 111.638,17.386 C111.990002,18.1340037 112.166,19.0139949 112.166,20.026 L112.166,27 L109.086,27 L109.086,20.422 C109.086,19.6153293 108.902669,18.9810023 108.536,18.519 C108.169331,18.0569977 107.663337,17.826 107.018,17.826 C106.548664,17.826 106.138002,17.9323323 105.786,18.145 C105.433998,18.3576677 105.155334,18.6546648 104.95,19.036 C104.744666,19.4173352 104.642,19.8499976 104.642,20.334 L104.642,27 L101.562,27 Z" id="Martin" fill="#04248E" fill-rule="nonzero"></path>
                <polygon id="M" fill="#04248E" fill-rule="nonzero" points="12.036 27 12.036 11.38 15.116 11.38 20.044 20.4 24.994 11.38 27.964 11.38 27.964 27 24.796 27 24.796 17.122 21.166 23.744 18.834 23.744 15.204 17.122 15.204 27"></polygon>
                <rect id="Rectangle" stroke="#04248E" stroke-width="2" x="1" y="1" width="37" height="37" rx="3"></rect>
            </g>
        </g>
    </g>
</svg>