<?xml version="1.0" encoding="UTF-8"?>
<svg width="20px" height="20px" viewBox="0 0 20 20" version="1.1" xmlns="http://www.w3.org/2000/svg" xmlns:xlink="http://www.w3.org/1999/xlink">
    <!-- Generator: Sketch 54.1 (76490) - https://sketchapp.com -->
    <title>settings-2-outline</title>
    <desc>Created with Sketch.</desc>
    <g id="Page-1" stroke="none" stroke-width="1" fill="none" fill-rule="evenodd">
        <g id="Desktop-HD" transform="translate(-1043.000000, -27.000000)" fill-rule="nonzero">
            <g id="Group-7-Copy-2" transform="translate(1041.000000, 25.000000)">
                <g id="settings-2-outline">
                    <rect id="Rectangle" fill="#000000" opacity="0" transform="translate(12.000000, 12.000000) rotate(180.000000) translate(-12.000000, -12.000000) " x="-1.77635684e-15" y="1.77635684e-15" width="24" height="24"></rect>
                    <path d="M12.94,22 L11.05,22 C10.1221616,22 9.37,21.2478384 9.37,20.32 L9.37,19.23 C9.3589455,19.0989124 9.27326133,18.9859651 9.15,18.94 C9.0250559,18.8599479 8.8649441,18.8599479 8.74,18.94 L8,19.74 C7.68648444,20.055721 7.2599402,20.2332779 6.815,20.2332779 C6.3700598,20.2332779 5.94351556,20.055721 5.63,19.74 L4.26,18.4 C3.93962393,18.0870269 3.75930826,17.6578756 3.76,17.21 C3.76064259,16.7565247 3.9403425,16.3216509 4.26,16 L5,15.26 C5.07298262,15.1474636 5.07298262,15.0025364 5,14.89 C4.94,14.74 4.84,14.63 4.7,14.63 L3.68,14.63 C2.75054638,14.6245002 1.99998373,13.8694699 2,12.94 L2,11.05 C2,10.1221616 2.75216162,9.37 3.68,9.37 L4.77,9.37 C4.90108755,9.3589455 5.01403487,9.27326133 5.06,9.15 C5.14005209,9.0250559 5.14005209,8.8649441 5.06,8.74 L4.26,8 C3.94427896,7.68648444 3.76672214,7.2599402 3.76672214,6.815 C3.76672214,6.3700598 3.94427896,5.94351556 4.26,5.63 L5.6,4.26 C5.90989746,3.94114994 6.33536414,3.76086745 6.78,3.76 C7.23693813,3.75799483 7.675894,3.93789477 8,4.26 L8.74,5 C8.85253645,5.07298262 8.99746355,5.07298262 9.11,5 C9.26,4.94 9.37,4.84 9.37,4.7 L9.37,3.68 C9.37549982,2.75054638 10.1305301,1.99998373 11.06,2 L13,2 C13.9278384,2 14.68,2.75216162 14.68,3.68 L14.68,4.77 C14.6910545,4.90108755 14.7767387,5.01403487 14.9,5.06 C15.0249441,5.14005209 15.1850559,5.14005209 15.31,5.06 L16,4.26 C16.3135156,3.94427896 16.7400598,3.76672214 17.185,3.76672214 C17.6299402,3.76672214 18.0564844,3.94427896 18.37,4.26 L19.74,5.6 C20.0594219,5.91362145 20.2395608,6.34235219 20.24,6.79 C20.2497565,7.24548515 20.068442,7.68426627 19.74,8 L19,8.74 C18.9270174,8.85253645 18.9270174,8.99746355 19,9.11 C19.06,9.26 19.16,9.37 19.3,9.37 L20.39,9.37 C21.2919797,9.41274461 22.0010123,10.1570087 22,11.06 L22,13 C22,13.9278384 21.2478384,14.68 20.32,14.68 L19.23,14.68 C19.0989124,14.6910545 18.9859651,14.7767387 18.94,14.9 C18.8670174,15.0125364 18.8670174,15.1574636 18.94,15.27 L19.71,16.04 C20.025721,16.3535156 20.2032779,16.7800598 20.2032779,17.225 C20.2032779,17.6699402 20.025721,18.0964844 19.71,18.41 L18.4,19.74 C18.0901025,20.0588501 17.6646359,20.2391326 17.22,20.24 C16.7734654,20.2341362 16.3467168,20.05483 16.03,19.74 L15.26,19 C15.1474636,18.9270174 15.0025364,18.9270174 14.89,19 C14.74,19.06 14.63,19.16 14.63,19.3 L14.63,20.39 C14.5872554,21.2919797 13.8429913,22.0010123 12.94,22 Z M11.37,20 L12.63,20 L12.63,19.23 C12.6387111,18.2869246 13.2150797,17.4421102 14.09,17.09 C14.9686437,16.7059318 15.9923272,16.8916967 16.68,17.56 L17.22,18.1 L18.1,17.22 L17.56,16.67 C16.8959849,15.9927953 16.7064148,14.9817548 17.08,14.11 C17.4352424,13.2390038 18.2793715,12.6670471 19.22,12.66 L20,12.66 L20,11.37 L19.23,11.37 C18.2869246,11.3612889 17.4421102,10.7849203 17.09,9.91 C16.7059318,9.03135635 16.8916967,8.00767276 17.56,7.32 L18.1,6.78 L17.22,5.9 L16.67,6.44 C15.9834252,7.06713719 14.99543,7.23911634 14.1373288,6.88085909 C13.2792276,6.52260183 12.7068225,5.69915557 12.67,4.77 L12.67,4 L11.37,4 L11.37,4.77 C11.3612889,5.7130754 10.7849203,6.55788976 9.91,6.91 C9.03135635,7.29406824 8.00767276,7.10830326 7.32,6.44 L6.78,5.9 L5.9,6.78 L6.44,7.33 C7.06713719,8.01657477 7.23911634,9.00456995 6.88085909,9.86267117 C6.52260183,10.7207724 5.69915557,11.2931775 4.77,11.33 L4,11.33 L4,12.59 L4.77,12.59 C5.7130754,12.5987111 6.55788976,13.1750797 6.91,14.05 C7.29406824,14.9286437 7.10830326,15.9523272 6.44,16.64 L5.9,17.18 L6.78,18.06 L7.33,17.52 C8.01657477,16.8928628 9.00456995,16.7208837 9.86267117,17.0791409 C10.7207724,17.4373982 11.2931775,18.2608444 11.33,19.19 L11.37,20 Z" id="Shape" fill="#3B3E46"></path>
                    <path d="M12,15.5 C10.5843821,15.5 9.30815514,14.6472524 8.76642164,13.339392 C8.22468814,12.0315316 8.52413328,10.5261193 9.52512627,9.52512627 C10.5261193,8.52413328 12.0315316,8.22468814 13.339392,8.76642164 C14.6472524,9.30815514 15.5,10.5843821 15.5,12 C15.5,13.9329966 13.9329966,15.5 12,15.5 L12,15.5 Z M12,10.5 C11.1715729,10.5 10.5,11.1715729 10.5,12 C10.5,12.8284271 11.1715729,13.5 12,13.5 C12.8284271,13.5 13.5,12.8284271 13.5,12 C13.5,11.1715729 12.8284271,10.5 12,10.5 Z" id="Shape" fill="#3B3E46"></path>
                </g>
            </g>
        </g>
    </g>
</svg>